<mxfile host="app.diagrams.net" agent="Mozilla/5.0 (Windows NT 10.0; Win64; x64) AppleWebKit/537.36 (KHTML, like Gecko) Chrome/136.0.0.0 Safari/537.36" version="26.2.3">
  <diagram id="R2lEEEUBdFMjLlhIrx00" name="Page-1">
    <mxGraphModel dx="1283" dy="658" grid="1" gridSize="10" guides="1" tooltips="1" connect="1" arrows="1" fold="1" page="1" pageScale="1" pageWidth="1169" pageHeight="1654" math="0" shadow="0" extFonts="Permanent Marker^https://fonts.googleapis.com/css?family=Permanent+Marker">
      <root>
        <mxCell id="0" />
        <mxCell id="1" parent="0" />
        <mxCell id="w_d4atK8ewcJzKEfcD4E-1" value="User" style="whiteSpace=wrap;html=1;align=center;" parent="1" vertex="1">
          <mxGeometry x="225" y="350" width="170" height="40" as="geometry" />
        </mxCell>
        <mxCell id="w_d4atK8ewcJzKEfcD4E-2" value="UserID" style="ellipse;whiteSpace=wrap;html=1;align=center;fontStyle=4;" parent="1" vertex="1">
          <mxGeometry x="70" y="220" width="100" height="40" as="geometry" />
        </mxCell>
        <mxCell id="w_d4atK8ewcJzKEfcD4E-3" value="" style="endArrow=none;html=1;rounded=0;exitX=1;exitY=1;exitDx=0;exitDy=0;entryX=0;entryY=0;entryDx=0;entryDy=0;" parent="1" source="w_d4atK8ewcJzKEfcD4E-2" target="w_d4atK8ewcJzKEfcD4E-1" edge="1">
          <mxGeometry relative="1" as="geometry">
            <mxPoint x="130" y="320" as="sourcePoint" />
            <mxPoint x="290" y="320" as="targetPoint" />
          </mxGeometry>
        </mxCell>
        <mxCell id="w_d4atK8ewcJzKEfcD4E-4" value="UserName" style="ellipse;whiteSpace=wrap;html=1;align=center;" parent="1" vertex="1">
          <mxGeometry x="150" y="180" width="100" height="40" as="geometry" />
        </mxCell>
        <mxCell id="w_d4atK8ewcJzKEfcD4E-5" value="Email" style="ellipse;whiteSpace=wrap;html=1;align=center;" parent="1" vertex="1">
          <mxGeometry x="260" y="170" width="100" height="40" as="geometry" />
        </mxCell>
        <mxCell id="w_d4atK8ewcJzKEfcD4E-7" value="Password" style="ellipse;whiteSpace=wrap;html=1;align=center;" parent="1" vertex="1">
          <mxGeometry x="370" y="180" width="100" height="40" as="geometry" />
        </mxCell>
        <mxCell id="w_d4atK8ewcJzKEfcD4E-8" value="Role" style="ellipse;whiteSpace=wrap;html=1;align=center;" parent="1" vertex="1">
          <mxGeometry x="450" y="220" width="100" height="40" as="geometry" />
        </mxCell>
        <mxCell id="w_d4atK8ewcJzKEfcD4E-9" value="" style="endArrow=none;html=1;rounded=0;exitX=0.5;exitY=1;exitDx=0;exitDy=0;entryX=0.25;entryY=0;entryDx=0;entryDy=0;" parent="1" source="w_d4atK8ewcJzKEfcD4E-4" target="w_d4atK8ewcJzKEfcD4E-1" edge="1">
          <mxGeometry relative="1" as="geometry">
            <mxPoint x="270" y="300" as="sourcePoint" />
            <mxPoint x="430" y="300" as="targetPoint" />
          </mxGeometry>
        </mxCell>
        <mxCell id="w_d4atK8ewcJzKEfcD4E-10" value="" style="endArrow=none;html=1;rounded=0;exitX=0.5;exitY=1;exitDx=0;exitDy=0;entryX=0.5;entryY=0;entryDx=0;entryDy=0;" parent="1" source="w_d4atK8ewcJzKEfcD4E-5" target="w_d4atK8ewcJzKEfcD4E-1" edge="1">
          <mxGeometry relative="1" as="geometry">
            <mxPoint x="260" y="260" as="sourcePoint" />
            <mxPoint x="420" y="260" as="targetPoint" />
          </mxGeometry>
        </mxCell>
        <mxCell id="w_d4atK8ewcJzKEfcD4E-11" value="" style="endArrow=none;html=1;rounded=0;exitX=0.75;exitY=0;exitDx=0;exitDy=0;entryX=0.5;entryY=1;entryDx=0;entryDy=0;" parent="1" source="w_d4atK8ewcJzKEfcD4E-1" target="w_d4atK8ewcJzKEfcD4E-7" edge="1">
          <mxGeometry relative="1" as="geometry">
            <mxPoint x="370" y="320" as="sourcePoint" />
            <mxPoint x="530" y="320" as="targetPoint" />
          </mxGeometry>
        </mxCell>
        <mxCell id="w_d4atK8ewcJzKEfcD4E-12" value="" style="endArrow=none;html=1;rounded=0;exitX=1;exitY=0;exitDx=0;exitDy=0;entryX=0;entryY=1;entryDx=0;entryDy=0;" parent="1" source="w_d4atK8ewcJzKEfcD4E-1" target="w_d4atK8ewcJzKEfcD4E-8" edge="1">
          <mxGeometry relative="1" as="geometry">
            <mxPoint x="440" y="330" as="sourcePoint" />
            <mxPoint x="600" y="330" as="targetPoint" />
          </mxGeometry>
        </mxCell>
        <mxCell id="w_d4atK8ewcJzKEfcD4E-14" value="Review" style="whiteSpace=wrap;html=1;align=center;" parent="1" vertex="1">
          <mxGeometry x="225" y="590" width="170" height="40" as="geometry" />
        </mxCell>
        <mxCell id="w_d4atK8ewcJzKEfcD4E-18" value="ReviewID" style="ellipse;whiteSpace=wrap;html=1;align=center;fontStyle=4;" parent="1" vertex="1">
          <mxGeometry x="90" y="690" width="100" height="40" as="geometry" />
        </mxCell>
        <mxCell id="w_d4atK8ewcJzKEfcD4E-19" value="Date" style="ellipse;whiteSpace=wrap;html=1;align=center;" parent="1" vertex="1">
          <mxGeometry x="150" y="750" width="100" height="40" as="geometry" />
        </mxCell>
        <mxCell id="w_d4atK8ewcJzKEfcD4E-22" value="Rating" style="ellipse;whiteSpace=wrap;html=1;align=center;" parent="1" vertex="1">
          <mxGeometry x="380" y="750" width="100" height="40" as="geometry" />
        </mxCell>
        <mxCell id="w_d4atK8ewcJzKEfcD4E-23" value="Comment" style="ellipse;whiteSpace=wrap;html=1;align=center;" parent="1" vertex="1">
          <mxGeometry x="450" y="690" width="100" height="40" as="geometry" />
        </mxCell>
        <mxCell id="w_d4atK8ewcJzKEfcD4E-24" value="" style="endArrow=none;html=1;rounded=0;exitX=1;exitY=0;exitDx=0;exitDy=0;entryX=0;entryY=1;entryDx=0;entryDy=0;" parent="1" source="w_d4atK8ewcJzKEfcD4E-18" target="w_d4atK8ewcJzKEfcD4E-14" edge="1">
          <mxGeometry relative="1" as="geometry">
            <mxPoint x="250" y="690" as="sourcePoint" />
            <mxPoint x="410" y="690" as="targetPoint" />
          </mxGeometry>
        </mxCell>
        <mxCell id="w_d4atK8ewcJzKEfcD4E-25" value="" style="endArrow=none;html=1;rounded=0;exitX=1;exitY=1;exitDx=0;exitDy=0;entryX=0;entryY=0;entryDx=0;entryDy=0;" parent="1" source="w_d4atK8ewcJzKEfcD4E-14" target="w_d4atK8ewcJzKEfcD4E-23" edge="1">
          <mxGeometry relative="1" as="geometry">
            <mxPoint x="280" y="670" as="sourcePoint" />
            <mxPoint x="440" y="670" as="targetPoint" />
          </mxGeometry>
        </mxCell>
        <mxCell id="w_d4atK8ewcJzKEfcD4E-26" value="" style="endArrow=none;html=1;rounded=0;exitX=0.75;exitY=1;exitDx=0;exitDy=0;entryX=0.5;entryY=0;entryDx=0;entryDy=0;" parent="1" source="w_d4atK8ewcJzKEfcD4E-14" target="w_d4atK8ewcJzKEfcD4E-22" edge="1">
          <mxGeometry relative="1" as="geometry">
            <mxPoint x="330" y="710" as="sourcePoint" />
            <mxPoint x="490" y="710" as="targetPoint" />
          </mxGeometry>
        </mxCell>
        <mxCell id="w_d4atK8ewcJzKEfcD4E-28" value="" style="endArrow=none;html=1;rounded=0;entryX=0.5;entryY=0;entryDx=0;entryDy=0;exitX=0.25;exitY=1;exitDx=0;exitDy=0;" parent="1" source="w_d4atK8ewcJzKEfcD4E-14" target="w_d4atK8ewcJzKEfcD4E-19" edge="1">
          <mxGeometry relative="1" as="geometry">
            <mxPoint x="290" y="640" as="sourcePoint" />
            <mxPoint x="430" y="720" as="targetPoint" />
          </mxGeometry>
        </mxCell>
        <mxCell id="w_d4atK8ewcJzKEfcD4E-30" value="Gives" style="shape=rhombus;perimeter=rhombusPerimeter;whiteSpace=wrap;html=1;align=center;" parent="1" vertex="1">
          <mxGeometry x="250" y="460" width="120" height="60" as="geometry" />
        </mxCell>
        <mxCell id="w_d4atK8ewcJzKEfcD4E-33" value="" style="shape=link;html=1;rounded=0;entryX=0.5;entryY=1;entryDx=0;entryDy=0;exitX=0.5;exitY=0;exitDx=0;exitDy=0;" parent="1" source="w_d4atK8ewcJzKEfcD4E-14" target="w_d4atK8ewcJzKEfcD4E-30" edge="1">
          <mxGeometry relative="1" as="geometry">
            <mxPoint x="290" y="560" as="sourcePoint" />
            <mxPoint x="450" y="560" as="targetPoint" />
          </mxGeometry>
        </mxCell>
        <mxCell id="w_d4atK8ewcJzKEfcD4E-34" value="N" style="resizable=0;html=1;whiteSpace=wrap;align=right;verticalAlign=bottom;" parent="w_d4atK8ewcJzKEfcD4E-33" connectable="0" vertex="1">
          <mxGeometry x="1" relative="1" as="geometry">
            <mxPoint x="20" y="21" as="offset" />
          </mxGeometry>
        </mxCell>
        <mxCell id="w_d4atK8ewcJzKEfcD4E-36" value="" style="endArrow=none;html=1;rounded=0;exitX=0.5;exitY=1;exitDx=0;exitDy=0;entryX=0.5;entryY=0;entryDx=0;entryDy=0;" parent="1" source="w_d4atK8ewcJzKEfcD4E-1" target="w_d4atK8ewcJzKEfcD4E-30" edge="1">
          <mxGeometry relative="1" as="geometry">
            <mxPoint x="310" y="440" as="sourcePoint" />
            <mxPoint x="470" y="440" as="targetPoint" />
          </mxGeometry>
        </mxCell>
        <mxCell id="w_d4atK8ewcJzKEfcD4E-37" value="1" style="resizable=0;html=1;whiteSpace=wrap;align=right;verticalAlign=bottom;" parent="w_d4atK8ewcJzKEfcD4E-36" connectable="0" vertex="1">
          <mxGeometry x="1" relative="1" as="geometry">
            <mxPoint x="20" y="-1" as="offset" />
          </mxGeometry>
        </mxCell>
        <mxCell id="w_d4atK8ewcJzKEfcD4E-38" value="Retailer" style="whiteSpace=wrap;html=1;align=center;" parent="1" vertex="1">
          <mxGeometry x="760" y="350" width="170" height="40" as="geometry" />
        </mxCell>
        <mxCell id="w_d4atK8ewcJzKEfcD4E-39" value="RetailerName" style="ellipse;whiteSpace=wrap;html=1;align=center;" parent="1" vertex="1">
          <mxGeometry x="734" y="170" width="100" height="40" as="geometry" />
        </mxCell>
        <mxCell id="w_d4atK8ewcJzKEfcD4E-40" value="RetailerID" style="ellipse;whiteSpace=wrap;html=1;align=center;fontStyle=4;" parent="1" vertex="1">
          <mxGeometry x="650" y="220" width="100" height="40" as="geometry" />
        </mxCell>
        <mxCell id="w_d4atK8ewcJzKEfcD4E-41" value="Country" style="ellipse;whiteSpace=wrap;html=1;align=center;" parent="1" vertex="1">
          <mxGeometry x="870" y="170" width="100" height="40" as="geometry" />
        </mxCell>
        <mxCell id="w_d4atK8ewcJzKEfcD4E-42" value="URL" style="ellipse;whiteSpace=wrap;html=1;align=center;" parent="1" vertex="1">
          <mxGeometry x="940" y="220" width="100" height="40" as="geometry" />
        </mxCell>
        <mxCell id="w_d4atK8ewcJzKEfcD4E-43" value="" style="endArrow=none;html=1;rounded=0;exitX=0.5;exitY=1;exitDx=0;exitDy=0;entryX=0;entryY=0;entryDx=0;entryDy=0;" parent="1" source="w_d4atK8ewcJzKEfcD4E-40" target="w_d4atK8ewcJzKEfcD4E-38" edge="1">
          <mxGeometry relative="1" as="geometry">
            <mxPoint x="660" y="360" as="sourcePoint" />
            <mxPoint x="820" y="360" as="targetPoint" />
          </mxGeometry>
        </mxCell>
        <mxCell id="w_d4atK8ewcJzKEfcD4E-44" value="" style="endArrow=none;html=1;rounded=0;exitX=0.5;exitY=1;exitDx=0;exitDy=0;entryX=0.25;entryY=0;entryDx=0;entryDy=0;" parent="1" source="w_d4atK8ewcJzKEfcD4E-39" target="w_d4atK8ewcJzKEfcD4E-38" edge="1">
          <mxGeometry relative="1" as="geometry">
            <mxPoint x="660" y="410" as="sourcePoint" />
            <mxPoint x="820" y="410" as="targetPoint" />
          </mxGeometry>
        </mxCell>
        <mxCell id="w_d4atK8ewcJzKEfcD4E-45" value="" style="endArrow=none;html=1;rounded=0;exitX=0.5;exitY=1;exitDx=0;exitDy=0;entryX=0.75;entryY=0;entryDx=0;entryDy=0;" parent="1" source="w_d4atK8ewcJzKEfcD4E-41" target="w_d4atK8ewcJzKEfcD4E-38" edge="1">
          <mxGeometry relative="1" as="geometry">
            <mxPoint x="800" y="440" as="sourcePoint" />
            <mxPoint x="960" y="440" as="targetPoint" />
          </mxGeometry>
        </mxCell>
        <mxCell id="w_d4atK8ewcJzKEfcD4E-46" value="" style="endArrow=none;html=1;rounded=0;exitX=1;exitY=0;exitDx=0;exitDy=0;entryX=0.5;entryY=1;entryDx=0;entryDy=0;" parent="1" source="w_d4atK8ewcJzKEfcD4E-38" target="w_d4atK8ewcJzKEfcD4E-42" edge="1">
          <mxGeometry relative="1" as="geometry">
            <mxPoint x="960" y="500" as="sourcePoint" />
            <mxPoint x="1120" y="500" as="targetPoint" />
          </mxGeometry>
        </mxCell>
        <mxCell id="w_d4atK8ewcJzKEfcD4E-48" value="Listing" style="whiteSpace=wrap;html=1;align=center;" parent="1" vertex="1">
          <mxGeometry x="760" y="590" width="170" height="40" as="geometry" />
        </mxCell>
        <mxCell id="w_d4atK8ewcJzKEfcD4E-49" value="ListingID" style="ellipse;whiteSpace=wrap;html=1;align=center;fontStyle=4;" parent="1" vertex="1">
          <mxGeometry x="640" y="700" width="100" height="40" as="geometry" />
        </mxCell>
        <mxCell id="w_d4atK8ewcJzKEfcD4E-52" value="Quantity" style="ellipse;whiteSpace=wrap;html=1;align=center;" parent="1" vertex="1">
          <mxGeometry x="980" y="700" width="100" height="40" as="geometry" />
        </mxCell>
        <mxCell id="w_d4atK8ewcJzKEfcD4E-53" value="" style="endArrow=none;html=1;rounded=0;exitX=0.5;exitY=0;exitDx=0;exitDy=0;entryX=0;entryY=1;entryDx=0;entryDy=0;" parent="1" source="w_d4atK8ewcJzKEfcD4E-49" target="w_d4atK8ewcJzKEfcD4E-48" edge="1">
          <mxGeometry relative="1" as="geometry">
            <mxPoint x="750" y="640" as="sourcePoint" />
            <mxPoint x="910" y="640" as="targetPoint" />
          </mxGeometry>
        </mxCell>
        <mxCell id="w_d4atK8ewcJzKEfcD4E-55" value="" style="endArrow=none;html=1;rounded=0;exitX=0.75;exitY=1;exitDx=0;exitDy=0;entryX=0.5;entryY=0;entryDx=0;entryDy=0;" parent="1" source="w_d4atK8ewcJzKEfcD4E-48" target="w_d4atK8ewcJzKEfcD4E-57" edge="1">
          <mxGeometry relative="1" as="geometry">
            <mxPoint x="820" y="700" as="sourcePoint" />
            <mxPoint x="910" y="730" as="targetPoint" />
          </mxGeometry>
        </mxCell>
        <mxCell id="w_d4atK8ewcJzKEfcD4E-56" value="" style="endArrow=none;html=1;rounded=0;exitX=1;exitY=1;exitDx=0;exitDy=0;entryX=0.5;entryY=0;entryDx=0;entryDy=0;" parent="1" source="w_d4atK8ewcJzKEfcD4E-48" target="w_d4atK8ewcJzKEfcD4E-52" edge="1">
          <mxGeometry relative="1" as="geometry">
            <mxPoint x="970" y="740" as="sourcePoint" />
            <mxPoint x="1130" y="740" as="targetPoint" />
          </mxGeometry>
        </mxCell>
        <mxCell id="w_d4atK8ewcJzKEfcD4E-57" value="Price" style="ellipse;whiteSpace=wrap;html=1;align=center;" parent="1" vertex="1">
          <mxGeometry x="930" y="750" width="100" height="40" as="geometry" />
        </mxCell>
        <mxCell id="w_d4atK8ewcJzKEfcD4E-58" value="Lists" style="shape=rhombus;perimeter=rhombusPerimeter;whiteSpace=wrap;html=1;align=center;" parent="1" vertex="1">
          <mxGeometry x="785" y="460" width="120" height="60" as="geometry" />
        </mxCell>
        <mxCell id="w_d4atK8ewcJzKEfcD4E-59" value="" style="shape=link;html=1;rounded=0;entryX=0.5;entryY=1;entryDx=0;entryDy=0;exitX=0.5;exitY=0;exitDx=0;exitDy=0;" parent="1" source="w_d4atK8ewcJzKEfcD4E-48" target="w_d4atK8ewcJzKEfcD4E-58" edge="1">
          <mxGeometry relative="1" as="geometry">
            <mxPoint x="780" y="560" as="sourcePoint" />
            <mxPoint x="940" y="560" as="targetPoint" />
          </mxGeometry>
        </mxCell>
        <mxCell id="w_d4atK8ewcJzKEfcD4E-60" value="N" style="resizable=0;html=1;whiteSpace=wrap;align=right;verticalAlign=bottom;" parent="w_d4atK8ewcJzKEfcD4E-59" connectable="0" vertex="1">
          <mxGeometry x="1" relative="1" as="geometry">
            <mxPoint x="25" y="21" as="offset" />
          </mxGeometry>
        </mxCell>
        <mxCell id="w_d4atK8ewcJzKEfcD4E-61" value="" style="endArrow=none;html=1;rounded=0;exitX=0.5;exitY=1;exitDx=0;exitDy=0;entryX=0.5;entryY=0;entryDx=0;entryDy=0;" parent="1" source="w_d4atK8ewcJzKEfcD4E-38" target="w_d4atK8ewcJzKEfcD4E-58" edge="1">
          <mxGeometry relative="1" as="geometry">
            <mxPoint x="870" y="440" as="sourcePoint" />
            <mxPoint x="1030" y="440" as="targetPoint" />
          </mxGeometry>
        </mxCell>
        <mxCell id="w_d4atK8ewcJzKEfcD4E-62" value="1" style="resizable=0;html=1;whiteSpace=wrap;align=right;verticalAlign=bottom;" parent="w_d4atK8ewcJzKEfcD4E-61" connectable="0" vertex="1">
          <mxGeometry x="1" relative="1" as="geometry">
            <mxPoint x="25" y="-1" as="offset" />
          </mxGeometry>
        </mxCell>
        <mxCell id="w_d4atK8ewcJzKEfcD4E-63" value="Date" style="ellipse;whiteSpace=wrap;html=1;align=center;" parent="1" vertex="1">
          <mxGeometry x="685" y="750" width="100" height="40" as="geometry" />
        </mxCell>
        <mxCell id="w_d4atK8ewcJzKEfcD4E-64" value="" style="endArrow=none;html=1;rounded=0;exitX=0.25;exitY=1;exitDx=0;exitDy=0;entryX=0.5;entryY=0;entryDx=0;entryDy=0;" parent="1" source="w_d4atK8ewcJzKEfcD4E-48" target="w_d4atK8ewcJzKEfcD4E-63" edge="1">
          <mxGeometry relative="1" as="geometry">
            <mxPoint x="770" y="860" as="sourcePoint" />
            <mxPoint x="930" y="860" as="targetPoint" />
          </mxGeometry>
        </mxCell>
        <mxCell id="w_d4atK8ewcJzKEfcD4E-66" value="Product" style="whiteSpace=wrap;html=1;align=center;" parent="1" vertex="1">
          <mxGeometry x="499" y="1180" width="170" height="40" as="geometry" />
        </mxCell>
        <mxCell id="w_d4atK8ewcJzKEfcD4E-67" value="ProductID" style="ellipse;whiteSpace=wrap;html=1;align=center;fontStyle=4;" parent="1" vertex="1">
          <mxGeometry x="380" y="1070" width="100" height="40" as="geometry" />
        </mxCell>
        <mxCell id="w_d4atK8ewcJzKEfcD4E-68" value="ProductName" style="ellipse;whiteSpace=wrap;html=1;align=center;" parent="1" vertex="1">
          <mxGeometry x="434" y="1020" width="100" height="40" as="geometry" />
        </mxCell>
        <mxCell id="w_d4atK8ewcJzKEfcD4E-69" value="Brand" style="ellipse;whiteSpace=wrap;html=1;align=center;" parent="1" vertex="1">
          <mxGeometry x="534" y="990" width="100" height="40" as="geometry" />
        </mxCell>
        <mxCell id="w_d4atK8ewcJzKEfcD4E-70" value="Description" style="ellipse;whiteSpace=wrap;html=1;align=center;" parent="1" vertex="1">
          <mxGeometry x="634" y="1020" width="100" height="40" as="geometry" />
        </mxCell>
        <mxCell id="w_d4atK8ewcJzKEfcD4E-71" value="ImageURL" style="ellipse;whiteSpace=wrap;html=1;align=center;" parent="1" vertex="1">
          <mxGeometry x="685" y="1070" width="100" height="40" as="geometry" />
        </mxCell>
        <mxCell id="w_d4atK8ewcJzKEfcD4E-72" value="" style="endArrow=none;html=1;rounded=0;exitX=0.5;exitY=1;exitDx=0;exitDy=0;entryX=0;entryY=0;entryDx=0;entryDy=0;" parent="1" source="w_d4atK8ewcJzKEfcD4E-67" target="w_d4atK8ewcJzKEfcD4E-66" edge="1">
          <mxGeometry relative="1" as="geometry">
            <mxPoint x="440" y="1140" as="sourcePoint" />
            <mxPoint x="600" y="1140" as="targetPoint" />
          </mxGeometry>
        </mxCell>
        <mxCell id="w_d4atK8ewcJzKEfcD4E-73" value="" style="endArrow=none;html=1;rounded=0;exitX=0.5;exitY=1;exitDx=0;exitDy=0;entryX=0.25;entryY=0;entryDx=0;entryDy=0;" parent="1" source="w_d4atK8ewcJzKEfcD4E-68" target="w_d4atK8ewcJzKEfcD4E-66" edge="1">
          <mxGeometry relative="1" as="geometry">
            <mxPoint x="510" y="1150" as="sourcePoint" />
            <mxPoint x="670" y="1150" as="targetPoint" />
          </mxGeometry>
        </mxCell>
        <mxCell id="w_d4atK8ewcJzKEfcD4E-74" value="" style="endArrow=none;html=1;rounded=0;exitX=0.5;exitY=1;exitDx=0;exitDy=0;entryX=0.5;entryY=0;entryDx=0;entryDy=0;" parent="1" source="w_d4atK8ewcJzKEfcD4E-69" target="w_d4atK8ewcJzKEfcD4E-66" edge="1">
          <mxGeometry relative="1" as="geometry">
            <mxPoint x="580" y="1120" as="sourcePoint" />
            <mxPoint x="740" y="1120" as="targetPoint" />
          </mxGeometry>
        </mxCell>
        <mxCell id="w_d4atK8ewcJzKEfcD4E-75" value="" style="endArrow=none;html=1;rounded=0;exitX=0.5;exitY=1;exitDx=0;exitDy=0;entryX=0.75;entryY=0;entryDx=0;entryDy=0;" parent="1" source="w_d4atK8ewcJzKEfcD4E-70" target="w_d4atK8ewcJzKEfcD4E-66" edge="1">
          <mxGeometry relative="1" as="geometry">
            <mxPoint x="720" y="1180" as="sourcePoint" />
            <mxPoint x="880" y="1180" as="targetPoint" />
          </mxGeometry>
        </mxCell>
        <mxCell id="w_d4atK8ewcJzKEfcD4E-76" value="" style="endArrow=none;html=1;rounded=0;exitX=0.5;exitY=1;exitDx=0;exitDy=0;entryX=1;entryY=0;entryDx=0;entryDy=0;" parent="1" source="w_d4atK8ewcJzKEfcD4E-71" target="w_d4atK8ewcJzKEfcD4E-66" edge="1">
          <mxGeometry relative="1" as="geometry">
            <mxPoint x="790" y="1180" as="sourcePoint" />
            <mxPoint x="950" y="1180" as="targetPoint" />
          </mxGeometry>
        </mxCell>
        <mxCell id="w_d4atK8ewcJzKEfcD4E-78" value="Involves" style="shape=rhombus;perimeter=rhombusPerimeter;whiteSpace=wrap;html=1;align=center;" parent="1" vertex="1">
          <mxGeometry x="785" y="880" width="120" height="60" as="geometry" />
        </mxCell>
        <mxCell id="w_d4atK8ewcJzKEfcD4E-79" value="Evaluates" style="shape=rhombus;perimeter=rhombusPerimeter;whiteSpace=wrap;html=1;align=center;" parent="1" vertex="1">
          <mxGeometry x="250" y="880" width="120" height="60" as="geometry" />
        </mxCell>
        <mxCell id="w_d4atK8ewcJzKEfcD4E-80" value="" style="endArrow=none;html=1;rounded=0;exitX=1;exitY=0.5;exitDx=0;exitDy=0;entryX=0.5;entryY=1;entryDx=0;entryDy=0;" parent="1" source="w_d4atK8ewcJzKEfcD4E-66" target="w_d4atK8ewcJzKEfcD4E-78" edge="1">
          <mxGeometry relative="1" as="geometry">
            <mxPoint x="685" y="1199.29" as="sourcePoint" />
            <mxPoint x="1010" y="1199" as="targetPoint" />
            <Array as="points">
              <mxPoint x="845" y="1200" />
            </Array>
          </mxGeometry>
        </mxCell>
        <mxCell id="w_d4atK8ewcJzKEfcD4E-81" value="1" style="resizable=0;html=1;whiteSpace=wrap;align=right;verticalAlign=bottom;" parent="1" connectable="0" vertex="1">
          <mxGeometry x="870" y="450" as="geometry">
            <mxPoint x="-4" y="513" as="offset" />
          </mxGeometry>
        </mxCell>
        <mxCell id="w_d4atK8ewcJzKEfcD4E-82" value="" style="shape=link;html=1;rounded=0;exitX=0.5;exitY=1;exitDx=0;exitDy=0;entryX=0.5;entryY=0;entryDx=0;entryDy=0;" parent="1" source="w_d4atK8ewcJzKEfcD4E-48" target="w_d4atK8ewcJzKEfcD4E-78" edge="1">
          <mxGeometry relative="1" as="geometry">
            <mxPoint x="940" y="950" as="sourcePoint" />
            <mxPoint x="880" y="800" as="targetPoint" />
          </mxGeometry>
        </mxCell>
        <mxCell id="w_d4atK8ewcJzKEfcD4E-83" value="N" style="resizable=0;html=1;whiteSpace=wrap;align=right;verticalAlign=bottom;" parent="w_d4atK8ewcJzKEfcD4E-82" connectable="0" vertex="1">
          <mxGeometry x="1" relative="1" as="geometry">
            <mxPoint x="25" as="offset" />
          </mxGeometry>
        </mxCell>
        <mxCell id="w_d4atK8ewcJzKEfcD4E-84" value="" style="endArrow=none;html=1;rounded=0;entryX=0;entryY=0.5;entryDx=0;entryDy=0;exitX=0.5;exitY=1;exitDx=0;exitDy=0;" parent="1" source="w_d4atK8ewcJzKEfcD4E-79" target="w_d4atK8ewcJzKEfcD4E-66" edge="1">
          <mxGeometry relative="1" as="geometry">
            <mxPoint x="170" y="1200" as="sourcePoint" />
            <mxPoint x="470" y="1200" as="targetPoint" />
            <Array as="points">
              <mxPoint x="310" y="1200" />
            </Array>
          </mxGeometry>
        </mxCell>
        <mxCell id="w_d4atK8ewcJzKEfcD4E-86" value="1" style="resizable=0;html=1;whiteSpace=wrap;align=right;verticalAlign=bottom;" parent="1" connectable="0" vertex="1">
          <mxGeometry x="330" y="970" as="geometry" />
        </mxCell>
        <mxCell id="w_d4atK8ewcJzKEfcD4E-87" value="" style="shape=link;html=1;rounded=0;exitX=0.5;exitY=1;exitDx=0;exitDy=0;entryX=0.5;entryY=0;entryDx=0;entryDy=0;" parent="1" source="w_d4atK8ewcJzKEfcD4E-14" target="w_d4atK8ewcJzKEfcD4E-79" edge="1">
          <mxGeometry relative="1" as="geometry">
            <mxPoint x="280" y="840" as="sourcePoint" />
            <mxPoint x="440" y="840" as="targetPoint" />
          </mxGeometry>
        </mxCell>
        <mxCell id="w_d4atK8ewcJzKEfcD4E-88" value="N" style="resizable=0;html=1;whiteSpace=wrap;align=right;verticalAlign=bottom;" parent="w_d4atK8ewcJzKEfcD4E-87" connectable="0" vertex="1">
          <mxGeometry x="1" relative="1" as="geometry">
            <mxPoint x="20" y="-10" as="offset" />
          </mxGeometry>
        </mxCell>
        <mxCell id="w_d4atK8ewcJzKEfcD4E-89" value="Category" style="whiteSpace=wrap;html=1;align=center;" parent="1" vertex="1">
          <mxGeometry x="499" y="1410" width="170" height="40" as="geometry" />
        </mxCell>
        <mxCell id="w_d4atK8ewcJzKEfcD4E-90" value="CategoryName" style="ellipse;whiteSpace=wrap;html=1;align=center;" parent="1" vertex="1">
          <mxGeometry x="600" y="1500" width="100" height="40" as="geometry" />
        </mxCell>
        <mxCell id="w_d4atK8ewcJzKEfcD4E-91" value="CategoryID" style="ellipse;whiteSpace=wrap;html=1;align=center;fontStyle=4;" parent="1" vertex="1">
          <mxGeometry x="460" y="1500" width="100" height="40" as="geometry" />
        </mxCell>
        <mxCell id="w_d4atK8ewcJzKEfcD4E-92" value="" style="endArrow=none;html=1;rounded=0;exitX=0.25;exitY=1;exitDx=0;exitDy=0;entryX=0.5;entryY=0;entryDx=0;entryDy=0;" parent="1" source="w_d4atK8ewcJzKEfcD4E-89" target="w_d4atK8ewcJzKEfcD4E-91" edge="1">
          <mxGeometry relative="1" as="geometry">
            <mxPoint x="350" y="1530" as="sourcePoint" />
            <mxPoint x="510" y="1530" as="targetPoint" />
          </mxGeometry>
        </mxCell>
        <mxCell id="w_d4atK8ewcJzKEfcD4E-93" value="" style="endArrow=none;html=1;rounded=0;exitX=0.5;exitY=0;exitDx=0;exitDy=0;entryX=0.75;entryY=1;entryDx=0;entryDy=0;" parent="1" source="w_d4atK8ewcJzKEfcD4E-90" target="w_d4atK8ewcJzKEfcD4E-89" edge="1">
          <mxGeometry relative="1" as="geometry">
            <mxPoint x="720" y="1460" as="sourcePoint" />
            <mxPoint x="880" y="1460" as="targetPoint" />
          </mxGeometry>
        </mxCell>
        <mxCell id="w_d4atK8ewcJzKEfcD4E-94" value="Belongs_To" style="shape=rhombus;perimeter=rhombusPerimeter;whiteSpace=wrap;html=1;align=center;" parent="1" vertex="1">
          <mxGeometry x="524" y="1290" width="120" height="60" as="geometry" />
        </mxCell>
        <mxCell id="w_d4atK8ewcJzKEfcD4E-96" value="" style="endArrow=none;html=1;rounded=0;exitX=0.5;exitY=0;exitDx=0;exitDy=0;entryX=0.5;entryY=1;entryDx=0;entryDy=0;" parent="1" source="w_d4atK8ewcJzKEfcD4E-89" target="w_d4atK8ewcJzKEfcD4E-94" edge="1">
          <mxGeometry relative="1" as="geometry">
            <mxPoint x="630" y="1380" as="sourcePoint" />
            <mxPoint x="790" y="1380" as="targetPoint" />
          </mxGeometry>
        </mxCell>
        <mxCell id="w_d4atK8ewcJzKEfcD4E-97" value="N" style="resizable=0;html=1;whiteSpace=wrap;align=right;verticalAlign=bottom;" parent="w_d4atK8ewcJzKEfcD4E-96" connectable="0" vertex="1">
          <mxGeometry x="1" relative="1" as="geometry">
            <mxPoint x="16" y="20" as="offset" />
          </mxGeometry>
        </mxCell>
        <mxCell id="w_d4atK8ewcJzKEfcD4E-98" value="" style="shape=link;html=1;rounded=0;entryX=0.5;entryY=1;entryDx=0;entryDy=0;exitX=0.5;exitY=0;exitDx=0;exitDy=0;" parent="1" source="w_d4atK8ewcJzKEfcD4E-94" target="w_d4atK8ewcJzKEfcD4E-66" edge="1">
          <mxGeometry relative="1" as="geometry">
            <mxPoint x="600" y="1270" as="sourcePoint" />
            <mxPoint x="760" y="1270" as="targetPoint" />
          </mxGeometry>
        </mxCell>
        <mxCell id="w_d4atK8ewcJzKEfcD4E-99" value="M" style="resizable=0;html=1;whiteSpace=wrap;align=left;verticalAlign=bottom;" parent="w_d4atK8ewcJzKEfcD4E-98" connectable="0" vertex="1">
          <mxGeometry x="-1" relative="1" as="geometry">
            <mxPoint x="6" as="offset" />
          </mxGeometry>
        </mxCell>
      </root>
    </mxGraphModel>
  </diagram>
</mxfile>
